<?xml version="1.0" standalone="no"?>
<!DOCTYPE svg PUBLIC "-//W3C//DTD SVG 20010904//EN"
 "http://www.w3.org/TR/2001/REC-SVG-20010904/DTD/svg10.dtd">
<svg version="1.0" xmlns="http://www.w3.org/2000/svg"
 width="411.000000pt" height="411.000000pt" viewBox="0 0 411.000000 411.000000"
 preserveAspectRatio="xMidYMid meet">
<metadata>
Created by potrace 1.14, written by Peter Selinger 2001-2017
</metadata>
<g transform="translate(0.000000,411.000000) scale(0.100000,-0.100000)"
fill="#000000" stroke="none">
<path d="M1865 4024 c-499 -74 -904 -291 -1235 -660 -250 -279 -436 -689 -475
-1049 -4 -33 -9 -73 -11 -90 -11 -89 -4 -347 12 -445 2 -14 8 -52 14 -85 37
-227 156 -521 296 -732 192 -289 488 -552 769 -682 133 -62 164 -75 273 -110
114 -38 155 -48 277 -71 172 -31 479 -34 640 -5 50 9 99 17 110 19 261 45 596
205 840 399 72 58 242 231 307 312 169 212 326 533 372 761 3 11 9 39 15 64
50 219 51 554 2 800 -82 408 -298 788 -611 1072 -85 78 -247 202 -285 219 -11
5 -42 23 -70 39 -173 104 -476 212 -663 236 -26 3 -74 9 -107 14 -93 12 -370
9 -470 -6z"/>
<path d="M6 2185 c-4 -12 -1 -16 11 -13 18 3 21 20 5 26 -5 1 -12 -4 -16 -13z"/>
</g>
</svg>
